<svg width="28" height="26" viewBox="0 0 28 26" fill="none" xmlns="http://www.w3.org/2000/svg">
<path d="M10.7893 0.0011557C9.896 0.0011557 9.06487 0.461613 8.59175 1.22022L6.84086 4.02555H4.1138C3.12157 4.02555 2.16998 4.41971 1.46836 5.12133C0.766749 5.82294 0.372586 6.77454 0.372586 7.76677V22.1561C0.372586 23.1483 0.766749 24.0999 1.46836 24.8015C2.16998 25.5031 3.12157 25.8973 4.1138 25.8973H24.2588C25.251 25.8973 26.2026 25.5031 26.9042 24.8015C27.6059 24.0999 28 23.1483 28 22.1561V7.76677C28 6.77454 27.6059 5.82294 26.9042 5.12133C26.2026 4.41971 25.251 4.02555 24.2588 4.02555H21.3015L19.7118 1.28929C19.4841 0.897216 19.1575 0.571789 18.7645 0.345538C18.3716 0.119286 17.9262 0.000138169 17.4728 4.79047e-06H10.7904L10.7893 0.0011557Z" fill="white"/>
<circle cx="14.4119" cy="13.9787" r="5.49637" stroke="#007665" stroke-width="1.4"/>
<rect x="8.21558" y="17.8935" width="14.2993" height="3.81315" transform="rotate(-45 8.21558 17.8935)" fill="white"/>
<path d="M17.2719 7L17.7485 9.38322L15.8419 10.3365" stroke="#007665" stroke-width="1.3" stroke-linecap="round"/>
<path d="M12.2072 21L11.7305 18.6168L13.6371 17.6635" stroke="#007665" stroke-width="1.3" stroke-linecap="round"/>
</svg>
