<svg width="25" height="25" viewBox="0 0 25 25" fill="none" xmlns="http://www.w3.org/2000/svg">
<path d="M11 6H3C1.89543 6 1 6.89543 1 8V22C1 23.1046 1.89543 24 3 24H17C18.1046 24 19 23.1046 19 22V14" stroke="black" stroke-width="2" stroke-linecap="round"/>
<path d="M18.2423 3.77777L20.2523 1.76773C21.0949 0.925225 22.4608 0.925225 23.3033 1.76773V1.76773C24.1458 2.61024 24.1458 3.97622 23.3033 4.81873L21.2933 6.82876L18.2423 3.77777Z" fill="black"/>
<path d="M9.49984 12.5L17.4998 4.5L20.4998 7.5L12.4998 15.5L9.99994 16C9.99994 16 9.14053 16.1407 8.99987 16C8.85922 15.8593 8.99994 15 8.99994 15L9.49984 12.5Z" fill="black"/>
</svg>
