<svg width="8" height="7" viewBox="0 0 8 7" fill="none" xmlns="http://www.w3.org/2000/svg">
<path d="M1.24878 9.53674e-07C1.58017 9.53674e-07 1.89799 0.132156 2.13232 0.367395C2.36665 0.602634 2.49829 0.921687 2.49829 1.25437V5.64358C2.49829 5.80827 2.46596 5.97135 2.40316 6.1235C2.34036 6.27564 2.24831 6.41387 2.13227 6.5303C2.01624 6.64672 1.87848 6.73905 1.72689 6.80201C1.5753 6.86497 1.41283 6.89733 1.24878 6.89723C0.917572 6.89723 0.599933 6.76515 0.365737 6.53004C0.13154 6.29494 -3.8147e-05 5.97607 -3.8147e-05 5.64358V1.25437C-3.8147e-05 0.921811 0.131517 0.602866 0.365693 0.367648C0.59987 0.132429 0.917506 0.000189781 1.24878 9.53674e-07Z" fill="#383737"/>
<path d="M6.24878 9.53674e-07C6.58017 9.53674e-07 6.89799 0.132156 7.13232 0.367395C7.36665 0.602634 7.49829 0.921687 7.49829 1.25437V5.64358C7.49829 5.80827 7.46596 5.97135 7.40316 6.1235C7.34036 6.27564 7.24831 6.41387 7.13227 6.5303C7.01624 6.64672 6.87848 6.73905 6.72689 6.80201C6.5753 6.86497 6.41283 6.89733 6.24878 6.89723C5.91757 6.89723 5.59993 6.76515 5.36574 6.53004C5.13154 6.29494 4.99996 5.97607 4.99996 5.64358V1.25437C4.99996 0.921811 5.13152 0.602866 5.36569 0.367648C5.59987 0.132429 5.91751 0.000189781 6.24878 9.53674e-07Z" fill="#383737"/>
</svg>
